<?xml version="1.0" encoding="UTF-8" standalone="no"?>
<!DOCTYPE svg PUBLIC "-//W3C//DTD SVG 1.1//EN" "http://www.w3.org/Graphics/SVG/1.1/DTD/svg11.dtd">
<svg width="100%" height="100%" viewBox="0 0 1667 879" version="1.1" xmlns="http://www.w3.org/2000/svg" xmlns:xlink="http://www.w3.org/1999/xlink" xml:space="preserve" xmlns:serif="http://www.serif.com/" style="fill-rule:evenodd;clip-rule:evenodd;stroke-linejoin:round;stroke-miterlimit:2;">
    <g transform="matrix(1,0,0,1,-2264.03,-520.9)">
        <g id="color-small-new-transparent" serif:id="color small new transparent" transform="matrix(0.868073,0,0,0.457396,2264.03,520.9)">
            <rect x="0" y="0" width="1920" height="1920" style="fill:none;"/>
            <g transform="matrix(1,0,0,1,-145.898,-1138.84)">
                <g transform="matrix(1.48974e-16,4.61737,-4.50762,5.23833e-16,6999.79,1160.38)">
                    <path d="M61.356,1468.53L60.745,1466.89C57.622,1454.17 60.059,1447.38 68.054,1446.51C77.934,1441.98 92.556,1437.34 111.923,1432.6C112.825,1433.23 113.35,1433.74 113.499,1434.13C100.077,1448.14 91.179,1458.5 86.802,1465.22C92.354,1471.9 101.839,1474.5 115.257,1473.04C122.833,1473.36 134.295,1472.68 149.643,1471.01L266.543,1458.29C295.768,1455.12 313.077,1451.14 318.47,1446.38C319.912,1442.55 320.467,1440.2 320.133,1439.3C309.472,1433.55 293.898,1426.03 273.41,1416.74L272.993,1415.63C273.636,1415.56 273.893,1415.35 273.764,1415C315.077,1415.26 337.151,1419.18 339.984,1426.77C342.455,1429.55 344.311,1432.6 345.552,1435.92L346.163,1437.56C351.626,1452.19 332.186,1463.9 287.845,1472.7L155.642,1487.08C113.367,1491.68 83.912,1487.96 67.278,1475.94C64.348,1473.73 62.374,1471.26 61.356,1468.53Z" style="fill:rgb(163,164,192);fill-rule:nonzero;"/>
                </g>
                <g transform="matrix(1.48974e-16,4.61737,-4.50762,5.23833e-16,6920.78,1212.99)">
                    <path d="M112.588,1425.33C112.66,1424.51 112.928,1424.08 113.392,1424.05L112.68,1423.49L107.868,1404.84C107.816,1404.64 107.976,1404.53 108.347,1404.5C107.397,1403.75 106.871,1403.18 106.767,1402.78C107.497,1402.67 107.817,1402.44 107.726,1402.09C113.349,1401.88 116.394,1402.67 116.859,1404.47C118.787,1405.71 122.121,1406.89 126.86,1408.01C130.667,1407.73 167.49,1400.77 237.33,1387.14C258.815,1382 271.408,1378.34 275.107,1376.17C275.287,1375.04 276.328,1373.94 278.231,1372.87C278.974,1372.82 279.397,1372.99 279.501,1373.39L280.975,1379.1C281.725,1382.01 282.704,1386.54 283.911,1392.68L282.874,1393.06L282.317,1393.1L272.641,1388.62L235.202,1396.49L239.393,1412.73L257.686,1413.19L264.724,1407.45L265.281,1407.41L266.472,1407.63C268.422,1413.72 269.772,1418.21 270.522,1421.12L271.997,1426.83C272.1,1427.23 271.781,1427.46 271.038,1427.52L261.919,1422.99C261.647,1421.94 251.442,1421.28 231.305,1421C167.88,1418.41 133.893,1417.29 129.343,1417.63C124.864,1419.35 121.559,1421.95 119.429,1425.43C117.015,1425.61 115.184,1425.85 113.935,1426.15L112.588,1425.33ZM164.949,1410.36C166.342,1410.25 185.801,1410.84 223.328,1412.1L220.068,1399.47C184.611,1406.22 166.187,1409.65 164.794,1409.76L164.949,1410.36Z" style="fill:rgb(163,164,192);fill-rule:nonzero;"/>
                </g>
                <g transform="matrix(1.48974e-16,4.61737,-4.50762,5.23833e-16,6920.78,1212.99)">
                    <path d="M85.345,1382.47L85.17,1381.26C84.58,1377.17 84.528,1372.91 85.015,1368.48C85.289,1365.17 88.69,1361.37 95.217,1357.09C100.843,1355.02 105.91,1353.64 110.417,1352.94C114.924,1352.25 121.43,1351.72 129.935,1351.36C137.88,1351.03 143.929,1351.08 148.082,1351.51C152.235,1351.94 154.499,1352.15 154.873,1352.14C161.806,1353.27 168.267,1355.02 174.254,1357.41C174.312,1357.82 175.463,1357.97 177.706,1357.88C183.408,1357.63 189.848,1356.65 197.028,1354.93L218.935,1350.35C224.899,1348.68 230.253,1347.01 234.995,1345.34C254.417,1338.53 269.103,1329.21 279.052,1317.37L279.613,1317.35C280.361,1317.32 280.764,1317.5 280.822,1317.9C283.038,1333.24 283.212,1340.95 281.342,1341.03C258.05,1350.33 244.254,1355.07 239.955,1355.26C230.267,1357.85 211.407,1361.38 183.373,1365.86C180.455,1366.49 179.091,1367.46 179.281,1368.77C179.572,1370.79 181.361,1371.78 184.647,1371.74C187.933,1371.71 192.099,1371.58 197.147,1371.37L227.43,1370.1C230.608,1369.96 235.266,1369.66 241.406,1369.2C241.377,1369 243.79,1367.48 248.645,1364.63C249.168,1363.7 250.36,1362.84 252.22,1362.05L255.024,1361.93C256.563,1362.17 257.413,1362.84 257.574,1363.95L258.273,1368.8C259.702,1378.68 259.108,1383.68 256.491,1383.79L254.809,1383.86C253.255,1383.52 252.434,1383.05 252.347,1382.44L252.82,1381.82C252.33,1381.02 251.033,1379.86 248.931,1378.33C248.557,1378.34 248.384,1378.45 248.414,1378.65C247.199,1378.7 246.249,1378.64 245.566,1378.47C202.326,1379.88 157.246,1381.58 110.326,1383.55L103.553,1383.53C100.749,1383.65 98.465,1384.76 96.7,1386.87L92.484,1392.83C92.04,1393.66 91.193,1394.31 89.943,1394.76L88.249,1394.76C87.673,1394.02 86.704,1389.93 85.345,1382.47ZM100.646,1375.13C104.443,1375.37 107.837,1375.43 110.828,1375.31L141.672,1374.01C148.02,1373.69 151.169,1373.36 151.118,1373L153.965,1373.19C159.947,1372.94 162.851,1372.2 162.676,1370.99C162.991,1370.57 163.134,1370.26 163.105,1370.06C162.383,1365.07 155.03,1362.33 141.043,1361.86C136.657,1361.43 132.126,1361.32 127.453,1361.51L126.332,1361.56C107.784,1363.36 98.399,1366.09 98.176,1369.75L100.646,1375.13Z" style="fill:rgb(163,164,192);fill-rule:nonzero;"/>
                </g>
                <g transform="matrix(1.48974e-16,4.61737,-4.50762,5.23833e-16,6920.78,1212.99)">
                    <path d="M56.074,1330.75C56.433,1315.75 56.871,1306.73 57.39,1303.68L77.623,1303.23C77.997,1303.22 78.192,1303.32 78.208,1303.52L79.309,1303.19L86.615,1303.03L87.762,1303.31C87.825,1302.9 88.184,1302.69 88.84,1302.68C89.589,1302.66 89.979,1302.86 90.01,1303.26C89.857,1303.72 84.743,1305.56 74.666,1308.77C70.664,1310.42 68.773,1312.69 68.992,1315.58L69.038,1316.18C69.1,1316.99 69.575,1318.3 70.463,1320.1C70.088,1320.11 69.909,1320.22 69.924,1320.42C72.218,1320.98 75.801,1321.2 80.672,1321.09L245.345,1317.44C246.469,1317.41 248.289,1316.66 250.804,1315.19C254.783,1313.23 257.798,1310.93 259.85,1308.3L261.49,1307.66L262.614,1307.63C266.507,1309.47 268.696,1313.58 269.181,1319.95C269.982,1330.46 269.446,1335.74 267.573,1335.78L265.324,1335.83C264.762,1335.85 259.684,1333.22 250.088,1327.97C157.775,1330.62 99.16,1332.23 74.243,1332.78C70.941,1333.77 69.37,1335.32 69.532,1337.44C69.794,1340.88 77.362,1344.16 92.236,1347.27C92.221,1347.07 92.401,1346.96 92.775,1346.95L93.383,1347.55L93.407,1347.85C93.426,1348.11 92.52,1348.53 90.689,1349.13L60.339,1349.8C59.777,1349.81 59.192,1349.52 58.584,1348.93L59.146,1348.92L58.538,1348.32C58.422,1346.81 57.811,1341.25 56.705,1331.65C56.69,1331.45 56.479,1331.15 56.074,1330.75Z" style="fill:rgb(163,164,192);fill-rule:nonzero;"/>
                </g>
                <g transform="matrix(1.48974e-16,4.61737,-4.50762,5.23833e-16,6920.78,1212.99)">
                    <path d="M93.629,1289.36L93.623,1286.25C93.609,1279.16 101.661,1274.02 117.78,1270.83C123.215,1269.66 128.652,1269.08 134.089,1269.07L203.839,1269.03C222.12,1269.02 235.626,1271.77 244.355,1277.28C248.11,1279.4 249.99,1282.36 249.998,1286.16L250.004,1289.27C250.018,1296.36 241.966,1301.5 225.847,1304.69C220.412,1305.86 214.975,1306.44 209.538,1306.45L139.788,1306.49C121.507,1306.5 108.001,1303.75 99.272,1298.24C95.517,1296.12 93.637,1293.16 93.629,1289.36ZM139.768,1296.55L203.893,1296.51C224.143,1296.5 234.264,1294.54 234.257,1290.65C235.1,1290.65 235.661,1289.61 235.938,1287.53L235.937,1286.85C235.93,1283.56 232.363,1281.29 225.236,1280.03C216.984,1279.32 209.859,1278.97 203.859,1278.98L139.734,1279.01C119.484,1279.02 109.363,1280.98 109.37,1284.87C108.526,1284.87 107.966,1285.91 107.689,1287.99L107.69,1288.67C107.697,1291.96 111.264,1294.23 118.391,1295.5C126.643,1296.2 133.768,1296.55 139.768,1296.55Z" style="fill:rgb(163,164,192);fill-rule:nonzero;"/>
                </g>
                <g transform="matrix(1.48974e-16,4.61737,-4.50762,5.23833e-16,6920.78,1212.99)">
                    <path d="M95.514,1242.7L95.792,1239.6C96.424,1232.52 104.936,1227.6 121.326,1224.84C126.862,1223.81 132.345,1223.37 137.776,1223.52L207.445,1225.33C225.705,1225.8 238.943,1228.91 247.159,1234.64C250.715,1236.87 252.324,1239.87 251.985,1243.66L251.707,1246.77C251.075,1253.85 242.564,1258.77 226.173,1261.53C220.638,1262.55 215.155,1262.99 209.723,1262.85L140.054,1261.04C121.794,1260.56 108.556,1257.46 100.34,1251.72C96.784,1249.5 95.175,1246.5 95.514,1242.7ZM140.942,1251.11L204.992,1252.77C225.219,1253.3 235.506,1251.62 235.854,1247.73C236.697,1247.75 237.351,1246.73 237.817,1244.66L237.878,1243.98C238.172,1240.69 234.817,1238.33 227.813,1236.88C219.636,1235.95 212.55,1235.42 206.557,1235.26L142.507,1233.59C122.28,1233.07 111.993,1234.75 111.645,1238.64C110.803,1238.62 110.148,1239.64 109.682,1241.7L109.621,1242.39C109.328,1245.67 112.683,1248.04 119.687,1249.49C127.864,1250.41 134.949,1250.95 140.942,1251.11Z" style="fill:rgb(163,164,192);fill-rule:nonzero;"/>
                </g>
                <g transform="matrix(1.48974e-16,4.61737,-4.50762,5.23833e-16,6920.78,1212.99)">
                    <path d="M94.145,1208.55C94.188,1208.35 94.439,1208.06 94.898,1207.68C94.93,1207.53 94.873,1206.91 94.727,1205.84C97.225,1196.82 99.125,1192.36 100.429,1192.44C107.762,1192.13 117.813,1191.03 130.584,1189.13L170.174,1186.71L171.485,1185.87L171.615,1185.27C171.765,1184.57 163.356,1182.41 146.387,1178.8C125.177,1173.4 113.917,1170.46 112.606,1169.97C112.001,1169.27 111.758,1168.64 111.876,1168.09L112.199,1166.58C113.007,1162.81 110.798,1153.95 112.733,1146.68C113.85,1146.75 114.495,1146.39 114.667,1145.58L115.785,1145.65C116.251,1145.68 119.934,1150.29 121.384,1152.79C126.361,1155.55 129.642,1156.98 131.225,1157.08L189.896,1160.74C218.394,1162.52 260.653,1165.26 316.673,1168.96C318.347,1166.87 322.425,1164.58 328.906,1162.08L330.023,1162.15C332.165,1162.29 332.384,1168.31 330.68,1180.23C328.89,1185.05 327.004,1187.69 325.023,1188.12L323.906,1188.05C317.633,1182.98 314.403,1180.43 314.217,1180.42L187.934,1172.54C177.131,1171.86 171.493,1172.63 171.019,1174.84L170.825,1175.75C171.748,1178.04 174.304,1179.33 178.495,1179.59C196.07,1182.57 209.115,1185.12 217.628,1187.23C220.393,1188.42 221.753,1189.11 221.71,1189.31C221.193,1191.73 209.293,1193.53 186.009,1194.73C172.859,1196.2 165.974,1197.5 165.353,1198.63L165.159,1199.54C164.836,1201.04 166.132,1202.04 169.048,1202.53C218.252,1205.45 242.924,1206.58 243.065,1205.93L250.568,1199.98C250.633,1199.68 251.257,1199.41 252.439,1199.18C254.77,1200.19 255.218,1206.03 253.783,1216.68C253.536,1217.84 252.732,1219.83 251.373,1222.64L249.697,1222.54C246.671,1220.37 243.004,1218.1 238.696,1215.74L122.471,1208.49C110.178,1207.72 103.903,1207.94 103.644,1209.14C103.085,1209.11 101.05,1209.8 97.539,1211.21L96.422,1211.14C94.678,1210.47 93.919,1209.61 94.145,1208.55Z" style="fill:rgb(163,164,192);fill-rule:nonzero;"/>
                </g>
                <g transform="matrix(1.48974e-16,4.61737,-4.50762,5.23833e-16,6920.78,1212.99)">
                    <path d="M112.733,1146.68C115.477,1140.83 118.814,1132.11 122.744,1120.51L123.297,1120.57L122.946,1119.91C124.127,1116.43 129.918,1113.4 140.321,1110.83C150.739,1108.77 159.73,1108.11 167.292,1108.86L171.718,1109.3C180.387,1110.15 185.918,1111.83 188.312,1114.33C193.389,1116.22 197.04,1118.95 199.264,1122.51L199.865,1124.11L200.418,1124.17C203.887,1120.96 209.443,1118.63 217.084,1117.17L217.638,1117.23C221.515,1115.34 227.788,1114.83 236.457,1115.69L240.33,1116.07C249.46,1116.97 258.595,1119.83 267.734,1124.64C273.63,1128.62 276.088,1132.05 275.11,1134.93C275.043,1135.13 274.825,1135.21 274.456,1135.18L274.503,1136.73C270.961,1147.18 268.531,1155.48 267.211,1161.62C266.345,1162.77 265.589,1163.32 264.944,1163.25L261.071,1162.87C260.425,1162.81 259.624,1160.67 258.668,1156.46C258.938,1155.66 248.928,1154.26 228.64,1152.26L155.048,1145C134.39,1142.96 123.859,1142.54 123.455,1143.73C120.396,1147.13 118.498,1148.8 117.76,1148.72L113.887,1148.34C113.333,1148.29 112.949,1147.73 112.733,1146.68ZM129.864,1133.25L156.977,1135.93C162.787,1136.5 172.411,1137.35 185.851,1138.47C187.364,1136.25 188.34,1134.5 188.779,1133.2L188.988,1129.21L187.78,1129.4C182.784,1124.17 174.891,1121.03 164.101,1119.96C151.467,1118.72 141.77,1120.33 135.012,1124.81C133.213,1127.31 132.036,1128.53 131.483,1128.47L129.864,1133.25ZM204.111,1140.27C217.415,1141.79 226.972,1142.84 232.782,1143.41L259.895,1146.09L261.413,1141.61C260.81,1141.14 260.695,1139.79 261.068,1137.56C257.473,1131.86 249.128,1128.36 236.033,1127.07C226.258,1126.1 216.813,1127.53 207.7,1131.37C207.767,1131.17 207.616,1131.05 207.247,1131.01C205.784,1133.08 204.943,1134.44 204.724,1135.09C204.37,1136.13 204.165,1137.86 204.111,1140.27Z" style="fill:rgb(163,164,192);fill-rule:nonzero;"/>
                </g>
            </g>
        </g>
    </g>
</svg>
